PathFileType	4	(X/Y/Z)	E:\3-PhD\Data\MocapData\ElaboratedData\012\pre\dynamicElaborations\Run_baselineA1\Run_baselineA1.trc
DataRate	CameraRate	NumFrames	NumMarkers	Units	OrigDataRate	OrigDataStartFrame	OrigNumFrames
200	200	5	56	mm	200	8.290000e+02	106
Frame#	Time	FHD			LBHD			RBHD			C7			T10			CLAV			LSHO			LUUPA			LMUPA			LDUPA			LLEP			LMEP			LRAD			LUL			LRFIN			RSHO			RUPA1			RMUPA			RDUPA			RLEP			RMEP			RRAD			RUL			RUFIN			LASI			RASI			USACR			LSACR			RSACR			LTHI1			LTHI2			LTHI3			LTHI4			LLFC			LTIB1			LTIB2			LTIB3			LTIB4			LHEE			LMT1			LMT5			LMT2			RTHI			RTHI2			RTHI3			RTHI4			RLFC			RTIB1			RTIB2			RTIB3			RTIB4			RLMAL			RHEE			RMT1			RMT2			RMT5		
		X1	Y1	Z1	X2	Y2	Z2	X3	Y3	Z3	X4	Y4	Z4	X5	Y5	Z5	X6	Y6	Z6	X7	Y7	Z7	X8	Y8	Z8	X9	Y9	Z9	X10	Y10	Z10	X11	Y11	Z11	X12	Y12	Z12	X13	Y13	Z13	X14	Y14	Z14	X15	Y15	Z15	X16	Y16	Z16	X17	Y17	Z17	X18	Y18	Z18	X19	Y19	Z19	X20	Y20	Z20	X21	Y21	Z21	X22	Y22	Z22	X23	Y23	Z23	X24	Y24	Z24	X25	Y25	Z25	X26	Y26	Z26	X27	Y27	Z27	X28	Y28	Z28	X29	Y29	Z29	X30	Y30	Z30	X31	Y31	Z31	X32	Y32	Z32	X33	Y33	Z33	X34	Y34	Z34	X35	Y35	Z35	X36	Y36	Z36	X37	Y37	Z37	X38	Y38	Z38	X39	Y39	Z39	X40	Y40	Z40	X41	Y41	Z41	X42	Y42	Z42	X43	Y43	Z43	X44	Y44	Z44	X45	Y45	Z45	X46	Y46	Z46	X47	Y47	Z47	X48	Y48	Z48	X49	Y49	Z49	X50	Y50	Z50	X51	Y51	Z51	X52	Y52	Z52	X53	Y53	Z53	X54	Y54	Z54	X55	Y55	Z55	X56	Y56	Z56	
855	4.270000	-2487.050883	1702.726182	429.265572	-2649.617144	1700.877781	337.229894	-2629.780371	1687.190239	485.124601	-2714.569267	1540.890050	401.048461	-2897.595002	1248.916925	332.028289	-2607.249136	1410.284159	397.491418	-2598.447800	1527.588927	255.869463	-2677.596322	1358.444952	106.118168	-2657.982027	1316.009333	123.889340	-2702.296318	1295.967489	87.581130	-2720.477086	1208.119598	67.222436	-2786.513930	1209.266494	128.113841	-2646.306977	971.454007	202.712135	-2649.611674	952.164575	127.359524	-2602.448314	895.562788	213.642394	-2659.162930	1446.653486	575.503653	-2852.567376	1283.273442	612.255663	-2823.299402	1241.453264	616.596951	-2877.207844	1217.829620	608.196411	-2904.099175	1152.825255	604.700514	-2907.807182	1145.202545	521.802878	-2693.645675	970.732185	562.788438	-2735.584861	920.494671	605.461965	-2634.696534	908.809696	572.788497	-2819.127334	979.848657	219.607064	-2847.762280	1002.148075	450.492380	-2969.962501	1122.155852	315.160130	-2986.514075	1093.046358	287.137146	-2994.278268	1099.657767	343.542882	-2923.845029	724.754185	141.651770	-2880.999479	650.214628	147.288539	-2837.014796	653.399624	164.930498	-2905.650440	595.868601	149.793531	-2925.265658	451.617211	174.444341	-3086.430770	405.850570	256.122852	-3134.027099	433.440815	193.311723	-3134.723335	402.262401	228.572952	-3213.015718	413.161975	258.971325	-3372.857866	530.374590	292.468644	-3416.334182	321.627470	311.520884	-3431.412546	350.464758	217.473271	-3418.713455	310.867153	259.771156	-2887.074858	709.955284	498.953127	-2830.719664	671.887591	502.700603	-2800.276576	679.390171	499.446189	-2832.785774	589.038719	476.660801	-2800.093749	475.278371	458.164083	-2790.953870	345.669343	401.835167	-2881.801561	293.129998	431.667843	-2844.426993	275.917516	411.640878	-2851.242246	233.540145	374.538410	-2966.876121	95.448207	353.800036	-3021.160071	56.349634	301.661486	-2794.336298	65.923747	304.215046	-2800.002640	67.116482	348.183813	-2844.196986	45.681626	397.799350	
856	4.275000	-2460.691104	1702.300779	428.321825	-2623.860794	1699.540310	337.245171	-2603.296145	1686.337182	484.826963	-2687.744186	1539.258419	401.795021	-2870.247520	1246.074170	331.473232	-2579.675542	1408.665609	396.214105	-2573.459529	1527.280507	254.486617	-2658.642683	1361.972102	103.314538	-2639.078731	1318.740155	119.173363	-2684.771452	1300.335619	83.873620	-2705.072809	1213.383199	61.667918	-2768.755280	1213.763866	124.517531	-2629.909548	972.123218	187.667307	-2635.975954	954.873956	111.935373	-2587.733220	895.068328	195.578698	-2629.871529	1444.216645	574.746000	-2816.722858	1275.116072	613.033124	-2786.429473	1233.920557	614.884976	-2839.706808	1208.941404	607.463890	-2864.324909	1142.717156	602.938853	-2870.853887	1136.657238	520.158705	-2646.450903	972.833388	550.793525	-2684.308181	919.208190	593.396277	-2583.798447	914.242335	557.855170	-2791.613591	976.650818	220.411023	-2822.521405	1000.198893	450.997819	-2942.600343	1120.924993	313.302905	-2958.629214	1091.957039	285.581020	-2967.009442	1098.718792	341.553018	-2886.040954	723.758768	141.453486	-2839.914509	651.296451	147.524057	-2796.481060	656.323686	166.242851	-2861.979495	595.890848	149.775426	-2875.472149	451.501109	175.099153	-3036.517522	405.337219	255.806135	-3083.838697	431.852688	191.561209	-3084.665128	401.194412	227.129550	-3163.443201	411.823272	257.243409	-3326.481268	527.332650	287.060144	-3364.588255	317.746037	306.150768	-3377.744850	345.797329	210.908006	-3365.321735	306.539636	253.859035	-2867.565208	707.728468	497.189502	-2811.932524	668.606336	501.208990	-2781.534630	675.292270	497.728155	-2815.620095	585.690803	475.385376	-2785.457532	471.156981	456.464009	-2781.587949	340.911772	400.042227	-2874.108500	291.777370	430.221394	-2837.416176	273.034012	410.166071	-2845.854154	230.884850	373.013020	-2966.048789	96.772728	352.644027	-3021.136025	57.390009	300.896459	-2794.218037	65.711297	303.835824	-2799.932672	66.972196	347.879888	-2844.324880	46.230450	397.572705	
857	4.280000	-2434.338671	1702.010927	427.292655	-2598.116099	1698.392647	337.182477	-2576.668720	1685.615771	484.553359	-2660.845822	1537.785662	402.424466	-2842.824130	1243.428596	330.985967	-2552.079749	1407.249193	394.796098	-2548.501904	1527.345165	253.167446	-2639.588348	1366.147114	100.629020	-2620.067359	1322.166226	114.397037	-2667.149947	1305.409611	80.262738	-2689.488470	1219.405098	56.257257	-2750.848386	1218.895398	120.926218	-2613.539668	973.965301	172.844955	-2622.382901	958.721684	96.909425	-2573.116782	895.883331	177.833515	-2600.224495	1442.253457	573.700151	-2780.278598	1267.806469	613.693222	-2749.112512	1227.344625	613.050687	-2801.675279	1201.030672	606.702739	-2824.069980	1133.720861	601.146063	-2834.025694	1129.118881	518.649868	-2599.619980	976.671276	538.817607	-2633.263260	919.882732	581.113412	-2533.453841	921.701205	543.034775	-2764.193723	973.515572	221.172091	-2797.301979	998.194410	451.521633	-2915.081507	1119.967136	311.607138	-2930.772645	1091.171929	283.979932	-2939.623405	1097.966694	339.644492	-2848.056035	723.646054	141.320643	-2798.632416	653.517934	148.004420	-2755.898370	660.451312	167.881718	-2817.976219	597.157020	150.037683	-2825.297837	452.725931	176.112083	-2986.239271	405.127145	255.450149	-3033.260189	430.578384	189.904884	-3034.167109	400.356016	225.616658	-3113.494370	410.205546	255.518942	-3280.141437	523.031028	281.443761	-3311.882916	312.571838	300.660506	-3323.250417	339.886522	204.413071	-3310.854718	301.065868	248.019245	-2848.460336	705.465489	495.312866	-2793.760198	665.139100	499.613220	-2763.367165	671.016415	495.984369	-2799.113572	582.301655	474.108485	-2771.816683	466.906292	454.782336	-2772.927093	336.216259	398.386583	-2866.956425	290.372574	428.895379	-2830.956755	270.180074	408.820438	-2840.928870	228.319010	371.603607	-2965.413986	98.130718	351.693016	-3021.165470	58.524999	300.284801	-2794.174216	65.726927	303.608738	-2799.923105	66.959593	347.695432	-2844.425414	46.736987	397.415019	
858	4.285000	-2407.973119	1701.869725	426.178528	-2572.348127	1697.462582	337.018132	-2549.836591	1685.032318	484.347854	-2633.881205	1536.496682	402.924556	-2815.296542	1241.054794	330.600052	-2524.464624	1406.073245	393.218377	-2523.548239	1527.818844	251.912219	-2620.387826	1370.955174	98.092568	-2600.909122	1326.298465	109.611060	-2649.374754	1311.174080	76.791904	-2673.634224	1226.157439	51.033557	-2732.744989	1224.651000	117.373428	-2597.158476	976.927155	158.321730	-2608.773074	963.650005	82.364158	-2558.529438	897.957037	160.490195	-2570.222190	1440.826250	572.365692	-2743.367005	1261.386650	614.144875	-2711.428127	1221.782659	611.117429	-2763.189740	1194.128429	605.918183	-2783.421907	1125.873820	599.327457	-2797.508272	1122.615921	517.298191	-2553.318229	982.177706	526.948957	-2582.657280	922.487124	568.701861	-2483.878691	931.081786	528.431283	-2736.825773	970.558202	221.824792	-2771.988180	996.167689	452.009184	-2887.391071	1119.263689	310.113683	-2902.896178	1090.675224	282.409076	-2912.085127	1097.379454	337.882462	-2809.984848	724.442866	141.251603	-2757.266519	656.902949	148.711969	-2715.373852	665.785287	169.797016	-2773.776747	599.706884	150.576239	-2774.874352	455.331973	177.476058	-2935.688041	405.253361	255.085096	-2982.345594	429.644652	188.372612	-2983.311017	399.774175	224.068855	-3063.279205	408.314983	253.708439	-3233.841040	517.449633	275.713496	-3258.241665	306.142482	295.034070	-3267.950156	332.839838	198.035447	-3255.332761	294.541631	242.282077	-2829.735611	703.164838	493.346101	-2776.197256	661.447240	497.963047	-2745.768874	666.486029	494.269123	-2783.368451	578.854334	472.762228	-2759.282029	462.523576	453.126591	-2764.926449	331.638603	396.822402	-2860.294114	288.927890	427.653879	-2824.985951	267.387679	407.563680	-2836.408742	225.868664	370.264001	-2964.894514	99.534871	350.917289	-3021.239738	59.789121	299.783429	-2794.181485	65.858793	303.474190	-2799.950587	66.998993	347.574120	-2844.501838	47.180847	397.299117	
859	4.290000	-2381.574751	1701.895486	424.979679	-2546.522044	1696.779952	336.729274	-2522.812168	1684.612481	484.182556	-2606.862876	1535.413212	403.287586	-2787.643755	1239.005595	330.342069	-2496.830086	1405.177121	391.465253	-2498.575578	1528.727301	250.719496	-2600.992206	1376.364396	95.740207	-2581.561601	1331.131885	104.875498	-2631.382935	1317.595196	73.504743	-2657.427092	1233.599920	46.038713	-2714.393361	1231.005103	113.896034	-2580.723348	980.946650	144.165733	-2595.085500	969.588104	68.371084	-2543.899950	901.223089	143.624482	-2539.880217	1439.984135	570.755797	-2706.114446	1255.879867	614.336800	-2673.466467	1217.259876	609.110684	-2724.341174	1188.241906	605.108051	-2742.474624	1119.189028	597.495120	-2761.431179	1117.140651	516.110059	-2507.697224	989.251208	515.276434	-2532.677987	926.946270	556.263002	-2435.270094	942.233855	514.137619	-2709.460458	967.889103	222.340475	-2746.452522	994.149020	452.417450	-2859.526719	1118.785450	308.858891	-2874.963981	1090.436822	280.946834	-2884.372219	1096.930861	336.327401	-2771.934932	726.153419	141.250107	-2715.950046	661.440967	149.623109	-2675.029407	672.287995	171.927779	-2729.544795	603.543611	151.378747	-2724.354408	459.332211	179.176180	-2884.950613	405.751901	254.758976	-2931.161190	429.057239	186.992376	-2932.171028	399.458083	222.544103	-3012.908472	406.157314	251.705996	-3187.562223	510.581238	269.945649	-3203.654943	298.546517	289.296296	-3211.844236	324.777599	191.817821	-3198.767969	287.080162	236.674651	-2811.325638	700.860556	491.323949	-2759.189156	657.548279	496.297503	-2728.689402	661.693332	492.617413	-2768.403068	575.386916	471.313441	-2747.861145	458.077246	451.504648	-2757.536057	327.258776	395.336043	-2854.082760	287.508789	426.471825	-2819.449884	264.728615	406.382504	-2832.238810	223.589341	368.985807	-2964.408877	101.026996	350.307107	-3021.343466	61.240570	299.364730	-2794.218210	66.032061	303.386320	-2799.994927	67.034498	347.472528	-2844.562821	47.555436	397.197318	
